<svg width="370" height="226" viewBox="0 0 370 226" fill="none" xmlns="http://www.w3.org/2000/svg">
<g clip-path="url(#clip0_9_2681)">
<path d="M189.809 182.676L60.4622 215.984C56.0747 217.109 51.4202 216.447 47.5199 214.144C43.6196 211.841 40.7921 208.085 39.6575 203.7L0.541901 51.7929C-0.582622 47.4053 0.0791584 42.7508 2.38206 38.8505C4.68496 34.9503 8.44091 32.1227 12.8259 30.9882L133.162 0.000488281L163.96 13.7883L202.093 161.871C203.218 166.259 202.556 170.913 200.253 174.814C197.95 178.714 194.194 181.542 189.809 182.676Z" fill="#F2F2F2"/>
<path d="M14.05 35.7511C10.9274 36.5589 8.25262 38.5724 6.61264 41.3499C4.97266 44.1273 4.50136 47.4419 5.30212 50.5664L44.4202 202.474C45.2281 205.597 47.2416 208.272 50.0191 209.912C52.7965 211.552 56.1111 212.023 59.2356 211.222L188.582 177.915C191.705 177.107 194.38 175.093 196.02 172.316C197.66 169.538 198.131 166.224 197.33 163.099L159.788 17.3097L132.72 5.19214L14.05 35.7511Z" fill="white"/>
<path d="M163.632 14.5735L143.613 19.7285C142.152 20.1047 140.601 19.8851 139.302 19.1178C138.002 18.3505 137.061 17.0985 136.684 15.6371L132.877 0.851901C132.861 0.787206 132.862 0.719153 132.883 0.655529C132.903 0.591906 132.941 0.535279 132.992 0.492136C133.043 0.448993 133.105 0.421079 133.171 0.411578C133.237 0.402077 133.305 0.411373 133.366 0.438413L163.687 13.9041C163.755 13.9341 163.811 13.9844 163.849 14.0479C163.887 14.1114 163.903 14.1851 163.897 14.2586C163.891 14.3322 163.862 14.402 163.815 14.4584C163.767 14.5149 163.703 14.5551 163.632 14.5735Z" fill="#F2F2F2"/>
<path d="M153.1 144.298L94.2105 159.464C93.4814 159.647 92.7094 159.534 92.0632 159.15C91.4169 158.766 90.949 158.142 90.7615 157.414C90.5741 156.686 90.6824 155.913 91.0628 155.265C91.4432 154.617 92.0647 154.145 92.7917 153.954L151.682 138.788C152.044 138.692 152.422 138.669 152.793 138.72C153.165 138.771 153.523 138.895 153.846 139.085C154.17 139.274 154.452 139.526 154.678 139.826C154.904 140.125 155.068 140.466 155.162 140.829C155.255 141.192 155.276 141.57 155.223 141.942C155.17 142.313 155.044 142.67 154.852 142.992C154.661 143.314 154.407 143.596 154.107 143.82C153.806 144.044 153.464 144.206 153.1 144.298Z" fill="#CCCCCC"/>
<path d="M166.859 150.669L96.6045 168.761C96.2419 168.856 95.864 168.879 95.4925 168.828C95.1211 168.777 94.7633 168.653 94.4399 168.464C94.1165 168.274 93.8338 168.022 93.608 167.723C93.3823 167.423 93.2179 167.082 93.1244 166.719C93.0309 166.356 93.0101 165.978 93.0632 165.607C93.1163 165.236 93.2423 164.879 93.4338 164.556C93.6254 164.234 93.8788 163.953 94.1794 163.729C94.4801 163.505 94.8221 163.342 95.1857 163.251L165.44 145.159C166.169 144.976 166.941 145.088 167.588 145.473C168.234 145.857 168.702 146.481 168.889 147.209C169.077 147.937 168.968 148.709 168.588 149.358C168.208 150.006 167.586 150.478 166.859 150.669Z" fill="#CCCCCC"/>
<path d="M70.1749 177.727C75.7285 177.727 80.2305 173.225 80.2305 167.672C80.2305 162.118 75.7285 157.616 70.1749 157.616C64.6214 157.616 60.1194 162.118 60.1194 167.672C60.1194 173.225 64.6214 177.727 70.1749 177.727Z" fill="#DC3545"/>
<path d="M146.838 117.982L68.6262 138.115C66.3658 138.694 63.968 138.353 61.9589 137.167C59.9497 135.98 58.4933 134.045 57.9092 131.786L41.5194 68.1136C40.9408 65.8536 41.2822 63.4563 42.4688 61.4476C43.6553 59.4389 45.59 57.9828 47.8487 57.3986L126.06 37.2657C128.321 36.6866 130.718 37.0277 132.728 38.2142C134.737 39.4008 136.193 41.3359 136.777 43.595L153.167 107.267C153.746 109.527 153.405 111.925 152.218 113.933C151.032 115.942 149.097 117.398 146.838 117.982Z" fill="white"/>
<path d="M146.838 117.982L68.6262 138.115C66.3658 138.694 63.968 138.353 61.9589 137.167C59.9497 135.98 58.4933 134.045 57.9092 131.786L41.5194 68.1136C40.9408 65.8536 41.2822 63.4563 42.4688 61.4476C43.6553 59.4389 45.59 57.9828 47.8487 57.3986L126.06 37.2657C128.321 36.6866 130.718 37.0277 132.728 38.2142C134.737 39.4008 136.193 41.3359 136.777 43.595L153.167 107.267C153.746 109.527 153.405 111.925 152.218 113.933C151.032 115.942 149.097 117.398 146.838 117.982ZM48.1065 58.3995C46.1136 58.9154 44.4068 60.2007 43.3603 61.9735C42.3138 63.7462 42.0131 65.8616 42.5242 67.8558L58.9145 131.528C59.4304 133.521 60.7157 135.228 62.4885 136.274C64.2612 137.321 66.3767 137.622 68.3708 137.11L146.581 116.98C148.574 116.464 150.281 115.178 151.327 113.406C152.374 111.633 152.674 109.517 152.163 107.523L135.774 43.8509C135.258 41.858 133.973 40.1511 132.2 39.1046C130.428 38.0581 128.312 37.7575 126.318 38.2686L48.1065 58.3995Z" fill="#E6E6E6"/>
<path d="M122.092 58.6731L82.621 68.8339C82.276 68.9302 81.9073 68.892 81.5893 68.7269C81.2714 68.5619 81.028 68.2823 80.9083 67.9447C80.8526 67.7682 80.8334 67.5823 80.852 67.3981C80.8705 67.214 80.9264 67.0356 81.0161 66.8738C81.1059 66.712 81.2277 66.5702 81.3741 66.4571C81.5205 66.3439 81.6884 66.2617 81.8676 66.2156L122.048 55.8726C123.671 56.6951 123.244 58.3772 122.093 58.6736L122.092 58.6731Z" fill="#F2F2F2"/>
<path d="M123.873 65.5947L84.4019 75.7555C84.0569 75.8518 83.6882 75.8136 83.3702 75.6485C83.0523 75.4835 82.8089 75.2039 82.6892 74.8663C82.6335 74.6898 82.6143 74.5039 82.6328 74.3198C82.6514 74.1357 82.7072 73.9573 82.797 73.7955C82.8868 73.6337 83.0086 73.4919 83.155 73.3787C83.3014 73.2655 83.4693 73.1834 83.6485 73.1373L123.829 62.7942C125.452 63.6167 125.025 65.2988 123.874 65.5952L123.873 65.5947Z" fill="#F2F2F2"/>
<path d="M76.8841 81.8961L64.8377 84.996C64.6429 85.0462 64.4401 85.0575 64.2409 85.0293C64.0417 85.0011 63.85 84.9339 63.6768 84.8316C63.5036 84.7293 63.3522 84.5939 63.2313 84.4331C63.1105 84.2722 63.0224 84.0892 62.9723 83.8943L59.3127 69.6817C59.2625 69.4869 59.2512 69.2841 59.2794 69.0849C59.3076 68.8857 59.3748 68.694 59.4771 68.5207C59.5794 68.3475 59.7148 68.1961 59.8756 68.0753C60.0365 67.9544 60.2195 67.8664 60.4144 67.8163L72.4608 64.7154C72.8542 64.6147 73.2715 64.6741 73.6212 64.8806C73.9709 65.0871 74.2244 65.4239 74.3262 65.817L77.9858 80.0331C78.036 80.228 78.0473 80.4308 78.0191 80.63C77.9909 80.8292 77.9238 81.0208 77.8215 81.1941C77.7192 81.3673 77.5837 81.5187 77.4229 81.6396C77.2621 81.7604 77.079 81.8484 76.8841 81.8985V81.8961Z" fill="#DC3545"/>
<path d="M127.409 79.8027L67.1669 95.3097C66.8219 95.406 66.4532 95.3678 66.1352 95.2027C65.8173 95.0377 65.5739 94.7581 65.4542 94.4205C65.3985 94.244 65.3793 94.0581 65.3978 93.874C65.4164 93.6898 65.4723 93.5114 65.562 93.3496C65.6518 93.1878 65.7736 93.046 65.92 92.9329C66.0664 92.8197 66.2343 92.7376 66.4135 92.6914L127.364 77.0017C128.988 77.8242 128.56 79.5063 127.409 79.8027Z" fill="#F2F2F2"/>
<path d="M129.193 86.7278L68.9499 102.235C68.6048 102.332 68.2361 102.293 67.9182 102.128C67.6003 101.963 67.3569 101.684 67.2371 101.346C67.1814 101.17 67.1623 100.984 67.1808 100.799C67.1994 100.615 67.2552 100.437 67.345 100.275C67.4348 100.113 67.5566 99.9716 67.703 99.8584C67.8494 99.7452 68.0173 99.6631 68.1965 99.617L129.147 83.9272C130.771 84.7498 130.343 86.4319 129.192 86.7283L129.193 86.7278Z" fill="#F2F2F2"/>
<path d="M130.973 93.6499L70.7312 109.157C70.3862 109.253 70.0175 109.215 69.6996 109.05C69.3817 108.885 69.1382 108.605 69.0185 108.268C68.9628 108.091 68.9436 107.905 68.9622 107.721C68.9807 107.537 69.0366 107.359 69.1264 107.197C69.2161 107.035 69.338 106.893 69.4844 106.78C69.6308 106.667 69.7987 106.585 69.9779 106.539L130.928 90.8489C132.552 91.6714 132.124 93.3535 130.973 93.6499Z" fill="#F2F2F2"/>
<path d="M132.757 100.575L72.5141 116.082C72.1691 116.178 71.8003 116.14 71.4824 115.975C71.1645 115.81 70.9211 115.53 70.8013 115.193C70.7456 115.016 70.7265 114.83 70.745 114.646C70.7636 114.462 70.8194 114.284 70.9092 114.122C70.999 113.96 71.1208 113.818 71.2672 113.705C71.4136 113.592 71.5815 113.51 71.7607 113.464L132.712 97.7739C134.334 98.5965 133.908 100.279 132.757 100.575Z" fill="#F2F2F2"/>
<path d="M134.538 107.497L74.2959 123.004C73.9509 123.1 73.5822 123.062 73.2643 122.897C72.9463 122.732 72.7029 122.452 72.5832 122.114C72.5275 121.938 72.5083 121.752 72.5269 121.568C72.5454 121.384 72.6013 121.205 72.6911 121.043C72.7808 120.882 72.9026 120.74 73.049 120.627C73.1954 120.514 73.3634 120.431 73.5426 120.385L134.493 104.696C136.116 105.518 135.689 107.2 134.538 107.497Z" fill="#F2F2F2"/>
<path d="M70.917 171.197C70.6981 171.253 70.4666 171.238 70.2575 171.151L70.2447 171.146L67.5054 169.984C67.3784 169.93 67.2634 169.852 67.1668 169.754C67.0702 169.655 66.9939 169.539 66.9423 169.411C66.8907 169.283 66.8648 169.146 66.8661 169.008C66.8674 168.87 66.8959 168.734 66.9499 168.607C67.0038 168.48 67.0823 168.365 67.1807 168.268C67.2792 168.172 67.3957 168.095 67.5236 168.044C67.6515 167.992 67.7883 167.966 67.9262 167.968C68.0642 167.969 68.2005 167.997 68.3274 168.051L70.1024 168.806L72.4282 163.335C72.5371 163.078 72.7434 162.876 73.0016 162.772C73.2598 162.668 73.5488 162.67 73.805 162.779L73.7911 162.815L73.8055 162.779C74.0616 162.888 74.264 163.094 74.3681 163.353C74.4722 163.611 74.4696 163.9 74.3607 164.156L71.6244 170.59C71.5609 170.738 71.4642 170.87 71.3416 170.974C71.219 171.079 71.0739 171.154 70.9175 171.194L70.917 171.197Z" fill="white"/>
<path d="M316.779 222.64L185.667 197.154C181.221 196.285 177.302 193.687 174.769 189.932C172.236 186.176 171.297 181.57 172.156 177.122L202.087 23.141C202.957 18.6958 205.554 14.7768 209.309 12.2439C213.064 9.71109 217.67 8.77119 222.118 9.63045L344.097 33.3408L365.987 59.023L336.81 209.128C335.941 213.573 333.344 217.493 329.589 220.026C325.834 222.559 321.227 223.499 316.779 222.64Z" fill="#E6E6E6"/>
<path d="M221.179 14.4586C218.012 13.8467 214.732 14.5161 212.058 16.3197C209.384 18.1234 207.534 20.9141 206.915 24.0796L176.984 178.061C176.373 181.228 177.042 184.508 178.846 187.182C180.649 189.856 183.44 191.706 186.605 192.325L317.718 217.81C320.885 218.422 324.165 217.753 326.839 215.949C329.514 214.146 331.363 211.355 331.982 208.189L360.707 60.4109L341.47 37.8407L221.179 14.4586Z" fill="white"/>
<path d="M318.087 79.7604L258.393 68.1571C257.653 68.0131 257 67.5808 256.578 66.9553C256.156 66.3297 256 65.5622 256.144 64.8215C256.288 64.0809 256.72 63.4277 257.345 63.0058C257.971 62.5838 258.738 62.4277 259.479 62.5717L319.174 74.1752C319.915 74.3192 320.568 74.7515 320.99 75.3771C321.412 76.0026 321.568 76.7701 321.424 77.5108C321.28 78.2515 320.848 78.9046 320.222 79.3266C319.597 79.7485 318.829 79.9047 318.089 79.7607L318.087 79.7604Z" fill="#DC3545"/>
<path d="M327.775 91.4255L256.561 77.5829C255.821 77.4389 255.167 77.0066 254.746 76.3811C254.324 75.7555 254.167 74.988 254.311 74.2473C254.455 73.5066 254.888 72.8535 255.513 72.4316C256.139 72.0096 256.906 71.8535 257.647 71.9974L328.861 85.84C329.601 85.984 330.255 86.4163 330.677 87.0418C331.099 87.6674 331.255 88.4349 331.111 89.1756C330.967 89.9163 330.534 90.5694 329.909 90.9913C329.283 91.4133 328.516 91.5694 327.775 91.4255Z" fill="#DC3545"/>
<path d="M310.963 116.413L251.271 104.81C250.53 104.666 249.763 104.823 249.137 105.244C248.512 105.666 248.079 106.319 247.935 107.06C247.792 107.801 247.948 108.568 248.37 109.194C248.791 109.819 249.445 110.251 250.185 110.395L309.877 121.998C310.614 122.131 311.372 121.969 311.99 121.547C312.607 121.124 313.033 120.476 313.176 119.742C313.319 119.007 313.167 118.246 312.753 117.623C312.338 117 311.695 116.566 310.963 116.413Z" fill="#CCCCCC"/>
<path d="M320.651 128.079L249.438 114.237C249.07 114.16 248.689 114.157 248.319 114.229C247.949 114.3 247.597 114.444 247.283 114.653C246.97 114.862 246.701 115.131 246.492 115.444C246.283 115.758 246.138 116.109 246.066 116.479C245.994 116.849 245.996 117.23 246.073 117.598C246.149 117.967 246.298 118.318 246.511 118.629C246.723 118.939 246.996 119.205 247.312 119.41C247.628 119.615 247.982 119.755 248.353 119.822L319.565 133.664C319.934 133.741 320.314 133.744 320.684 133.672C321.054 133.601 321.406 133.456 321.72 133.248C322.034 133.039 322.303 132.77 322.512 132.457C322.721 132.143 322.866 131.791 322.937 131.422C323.009 131.052 323.007 130.671 322.931 130.302C322.854 129.933 322.706 129.583 322.493 129.272C322.28 128.961 322.008 128.696 321.691 128.491C321.375 128.286 321.022 128.146 320.651 128.079Z" fill="#CCCCCC"/>
<path d="M301.666 164.24L241.972 152.636C241.232 152.492 240.578 152.06 240.157 151.435C239.735 150.809 239.578 150.041 239.722 149.301C239.866 148.56 240.299 147.907 240.924 147.485C241.55 147.063 242.317 146.907 243.058 147.051L302.753 158.654C303.494 158.798 304.147 159.231 304.569 159.856C304.991 160.482 305.147 161.249 305.003 161.99C304.859 162.731 304.427 163.384 303.801 163.806C303.176 164.228 302.408 164.384 301.668 164.24L301.666 164.24Z" fill="#CCCCCC"/>
<path d="M311.354 175.904L240.14 162.061C239.4 161.917 238.746 161.485 238.324 160.86C237.903 160.234 237.746 159.467 237.89 158.726C238.034 157.985 238.467 157.332 239.092 156.91C239.718 156.488 240.485 156.332 241.226 156.476L312.44 170.319C313.18 170.462 313.834 170.895 314.256 171.52C314.677 172.146 314.834 172.913 314.69 173.654C314.546 174.395 314.113 175.048 313.488 175.47C312.862 175.892 312.095 176.048 311.354 175.904Z" fill="#CCCCCC"/>
<path d="M231.243 75.1164C236.695 76.176 241.973 72.6157 243.033 67.1642C244.092 61.7127 240.532 56.4344 235.081 55.3747C229.629 54.3151 224.351 57.8754 223.291 63.3269C222.231 68.7784 225.792 74.0567 231.243 75.1164Z" fill="#DC3545"/>
<path d="M231.453 68.8206C231.23 68.7778 231.028 68.664 230.876 68.4962L230.867 68.4858L228.892 66.26C228.712 66.0509 228.621 65.7791 228.639 65.5035C228.658 65.228 228.784 64.9708 228.991 64.7877C229.198 64.6047 229.468 64.5104 229.744 64.5254C230.02 64.5403 230.279 64.6633 230.465 64.8677L231.744 66.3121L236.194 62.37C236.297 62.2786 236.417 62.2084 236.548 62.1635C236.678 62.1186 236.816 62.0998 236.954 62.1081C237.091 62.1165 237.226 62.152 237.35 62.2124C237.474 62.2728 237.585 62.3571 237.676 62.4604L237.649 62.4857L237.677 62.4596C237.862 62.6682 237.956 62.9414 237.939 63.2193C237.922 63.4972 237.795 63.757 237.587 63.9417L232.351 68.5765C232.23 68.6832 232.086 68.7606 231.93 68.8027C231.774 68.8448 231.611 68.8504 231.453 68.8191L231.453 68.8206Z" fill="white"/>
<path d="M235.837 109.6C235.586 110.896 235.081 112.13 234.353 113.232C233.624 114.333 232.686 115.281 231.591 116.019C230.496 116.758 229.267 117.274 227.973 117.538C226.679 117.801 225.345 117.807 224.049 117.555C223.964 117.541 223.879 117.521 223.797 117.496C221.866 117.069 220.103 116.082 218.73 114.658C217.358 113.235 216.435 111.438 216.078 109.492C215.721 107.547 215.946 105.54 216.724 103.722C217.503 101.904 218.8 100.355 220.454 99.2707C222.108 98.1861 224.044 97.6133 226.022 97.6241C228 97.6348 229.931 98.2285 231.572 99.331C233.214 100.433 234.495 101.996 235.253 103.822C236.012 105.649 236.215 107.658 235.837 109.6Z" fill="#DC3545"/>
<path d="M214.822 159.595C220.274 160.655 225.552 157.094 226.612 151.643C227.671 146.192 224.111 140.913 218.66 139.854C213.208 138.794 207.93 142.354 206.87 147.806C205.81 153.257 209.371 158.535 214.822 159.595Z" fill="#DC3545"/>
<path d="M365.354 59.5899L345.062 55.6456C343.581 55.3577 342.275 54.4931 341.431 53.242C340.587 51.9909 340.275 50.4558 340.563 48.9745L343.476 33.9876C343.489 33.922 343.52 33.8613 343.565 33.8126C343.611 33.7638 343.669 33.7289 343.734 33.7118C343.799 33.6947 343.867 33.6962 343.931 33.7161C343.994 33.7359 344.051 33.7734 344.095 33.8241L365.692 59.0079C365.74 59.064 365.769 59.1336 365.776 59.2071C365.783 59.2806 365.766 59.3543 365.729 59.4181C365.692 59.4819 365.636 59.5326 365.569 59.5631C365.502 59.5936 365.427 59.6025 365.354 59.5884L365.354 59.5899Z" fill="#CCCCCC"/>
<path d="M245.075 209.437C244.451 210.461 243.445 211.195 242.278 211.478C241.112 211.76 239.882 211.568 238.857 210.943L186.071 178.746C185.047 178.121 184.312 177.115 184.03 175.949C183.747 174.782 183.94 173.552 184.565 172.527C185.189 171.503 186.196 170.769 187.362 170.486C188.528 170.204 189.759 170.396 190.783 171.021L243.569 203.218C244.593 203.843 245.327 204.849 245.61 206.016C245.892 207.182 245.7 208.412 245.075 209.437Z" fill="#3F3D56"/>
<path d="M192.289 177.242C188.562 183.353 183.106 188.222 176.611 191.232C170.116 194.243 162.875 195.26 155.802 194.155C148.73 193.05 142.144 189.872 136.877 185.024C131.61 180.176 127.9 173.875 126.214 166.918C124.528 159.961 124.943 152.66 127.407 145.939C129.87 139.218 134.271 133.379 140.054 129.159C145.836 124.939 152.74 122.529 159.892 122.232C167.044 121.936 174.124 123.768 180.235 127.495C184.293 129.97 187.824 133.22 190.626 137.059C193.428 140.899 195.446 145.252 196.565 149.872C197.685 154.491 197.883 159.286 197.149 163.982C196.416 168.678 194.764 173.184 192.289 177.242ZM138.216 144.257C135.42 148.84 134.047 154.15 134.269 159.514C134.491 164.878 136.299 170.056 139.463 174.393C142.628 178.73 147.008 182.031 152.049 183.879C157.09 185.726 162.565 186.038 167.783 184.773C173.001 183.509 177.727 180.726 181.363 176.776C184.999 172.825 187.382 167.886 188.211 162.581C189.039 157.277 188.277 151.846 186.019 146.975C183.761 142.104 180.109 138.012 175.525 135.216C169.379 131.468 161.995 130.314 154.998 132.009C148.001 133.705 141.965 138.11 138.216 144.257Z" fill="#3F3D56"/>
<path d="M151.819 184.643C166.525 189.707 182.552 181.891 187.616 167.184C192.679 152.478 184.863 136.452 170.157 131.388C155.451 126.324 139.424 134.141 134.36 148.847C129.297 163.553 137.113 179.58 151.819 184.643Z" fill="#DC3545"/>
</g>
<defs>
<clipPath id="clip0_9_2681">
<rect width="370" height="225.898" fill="white"/>
</clipPath>
</defs>
</svg>
