<svg xmlns="http://www.w3.org/2000/svg" viewBox="-15 0 134 34" fill="none"><g clip-path="url(#clip0_523_1633)"><path d="M6.70527 12.0198C5.28364 11.8202 4.14912 11.6762 4.14912 10.7384C4.14912 10.0281 4.7187 9.40134 5.99677 9.40134C7.07573 9.40134 7.75644 9.88418 7.84443 10.6549H11.6231C11.5397 8.14783 9.40498 6.15613 5.9412 6.15613C2.47743 6.15613 0.254689 8.08747 0.254689 10.9659C0.254689 14.3829 3.43599 14.81 5.48276 15.0979C6.90439 15.2975 8.03892 15.4089 8.03892 16.4071C8.03892 17.1174 7.44156 17.7163 5.93657 17.7163C4.54273 17.7163 3.86201 17.2056 3.83423 16.3793H0C0.0879835 19.0302 2.38482 20.9662 5.96436 20.9662C9.5439 20.9662 11.9009 19.0581 11.9009 16.1796C11.9009 12.7626 8.63165 12.3076 6.70064 12.0198H6.70527Z" fill="#EEF4FF"></path><path d="M12.4429 13.5565C12.4429 9.28528 15.5686 6.15149 20.0002 6.15149C24.4318 6.15149 27.3491 9.08101 27.5483 13.134C27.5529 13.2733 27.5575 13.4172 27.5575 13.5565C27.5575 17.8278 24.4318 20.9616 20.0002 20.9616C15.5686 20.9616 12.4429 17.8278 12.4429 13.5565ZM23.6677 13.5565C23.6677 11.3048 22.1905 9.74026 20.0002 9.74026C17.8099 9.74026 16.3373 11.3048 16.3373 13.5565C16.3373 15.8082 17.8145 17.3728 20.0002 17.3728C22.1859 17.3728 23.6677 15.8036 23.6677 13.5565Z" fill="#EEF4FF"></path><path d="M29.0903 6.29544C29.0903 2.07991 31.6187 0 35.3418 0C39.0649 0 41.5655 2.10777 41.5655 6.29544H37.7312C37.7312 4.30374 36.7356 3.58877 35.3464 3.58877C33.9572 3.58877 32.9292 4.3316 32.9292 6.29544V8.48678H39.8336V11.9595H32.9292V20.5902H29.095V6.29544H29.0903Z" fill="#EEF4FF"></path><path d="M41.6719 15.0979V1.53674H45.5061V6.52296H52.4383V9.99566H45.5061V15.0933C45.5061 16.7739 46.3304 17.3728 47.4927 17.3728C48.655 17.3728 49.4515 16.8018 49.4515 15.0933V14.694H53.2857V15.0933C53.2857 19.0535 50.9287 20.9616 47.488 20.9616C44.0474 20.9616 41.6626 19.0535 41.6626 15.0933L41.6719 15.0979Z" fill="#EEF4FF"></path><path d="M54.2578 13.7004C54.2578 9.02994 57.3835 6.15149 61.7318 6.15149C66.08 6.15149 69.3169 9.19707 69.3169 13.7283C69.3169 18.5706 65.7096 20.9616 62.4125 20.9616C60.5648 20.9616 59.0321 20.2187 58.092 18.7981V26.6024H54.2578V13.7004ZM65.4225 13.5565C65.4225 11.3048 63.9453 9.74026 61.7596 9.74026C59.5739 9.74026 58.0967 11.3048 58.0967 13.5565C58.0967 15.8082 59.5739 17.3728 61.7596 17.3728C63.9453 17.3728 65.4225 15.8036 65.4225 13.5565Z" fill="#EEF4FF"></path><path d="M69.8218 13.7283C69.8218 9.19707 72.9475 6.15149 77.4069 6.15149C81.8663 6.15149 84.8809 9.1135 84.8809 13.7004V20.5948H81.3569V18.0599C80.5604 19.968 78.8285 20.9662 76.6984 20.9662C73.4615 20.9662 69.8218 18.5752 69.8218 13.7329V13.7283ZM81.0466 13.5565C81.0466 11.3048 79.5694 9.74026 77.3791 9.74026C75.1888 9.74026 73.7162 11.3048 73.7162 13.5565C73.7162 15.8082 75.1934 17.3728 77.3791 17.3728C79.5648 17.3728 81.0466 15.8036 81.0466 13.5565Z" fill="#EEF4FF"></path><path d="M86.5293 12.5026C86.5293 8.20354 89.0577 6.15149 92.7808 6.15149C96.5039 6.15149 98.9767 8.17569 99.0044 12.5584V12.6419H95.1702V12.498C95.1702 10.4181 94.1746 9.73562 92.7854 9.73562C91.3962 9.73562 90.3728 10.4181 90.3728 12.498V20.5855H86.5386V12.498L86.5293 12.5026Z" fill="#EEF4FF"></path><path d="M70.3127 33C64.2511 33 60.3937 29.2905 59.3379 28.1252L62.0746 25.6228C62.6535 26.2588 65.7931 29.4251 70.66 29.2812C74.8878 29.1512 78.6757 26.1056 79.3889 25.3582L82.0701 27.9209C82.0238 27.972 77.2541 32.7957 70.7757 32.9953C70.6229 33 70.4655 33.0046 70.3173 33.0046L70.3127 33Z" fill="#0F86FA"></path></g><defs><clipPath id="clip0_523_1633"><rect width="99" height="33" fill="white"></rect></clipPath></defs></svg>