<svg xmlns="http://www.w3.org/2000/svg" viewBox="-15 -15 80 80" fill="none"><rect width="50" height="50" rx="25" fill="#21316C"></rect><path d="M10 19.549C10 14.8784 13.1257 12 17.474 12C21.8222 12 25.0591 15.0456 25.0591 19.5768C25.0591 24.4191 21.4518 26.8101 18.1547 26.8101C16.307 26.8101 14.7743 26.0672 13.8342 24.6466V32.4509H10V19.549ZM21.1646 19.405C21.1646 17.1533 19.6874 15.5888 17.5018 15.5888C15.3161 15.5888 13.8389 17.1533 13.8389 19.405C13.8389 21.6567 15.3161 23.2213 17.5018 23.2213C19.6874 23.2213 21.1646 21.6521 21.1646 19.405Z" fill="#EEF4FF"></path><path d="M25.5635 19.5768C25.5635 15.0456 28.6892 12 33.1486 12C37.608 12 40.6226 14.962 40.6226 19.549V26.4433H37.0986V23.9084C36.3021 25.8165 34.5702 26.8147 32.4401 26.8147C29.2032 26.8147 25.5635 24.4237 25.5635 19.5815V19.5768ZM36.7883 19.405C36.7883 17.1533 35.3111 15.5888 33.1208 15.5888C30.9305 15.5888 29.4579 17.1533 29.4579 19.405C29.4579 21.6567 30.9351 23.2213 33.1208 23.2213C35.3065 23.2213 36.7883 21.6521 36.7883 19.405Z" fill="#EEF4FF"></path><path d="M26.0549 38.8485C19.9933 38.8485 16.1359 35.139 15.0801 33.9737L17.8168 31.4713C18.3957 32.1073 21.5353 35.2736 26.4022 35.1297C30.63 34.9997 34.4179 31.9541 35.1311 31.2067L37.8122 33.7694C37.7659 33.8205 32.9963 38.6442 26.5179 38.8438C26.3651 38.8485 26.2077 38.8531 26.0595 38.8531L26.0549 38.8485Z" fill="#0F86FA"></path></svg>