<svg xmlns="http://www.w3.org/2000/svg" viewBox="-25 0 134 30" fill="none"><g ><path d="M5.4184 9.83466C4.26961 9.67132 3.35282 9.55357 3.35282 8.78626C3.35282 8.20509 3.81309 7.69229 4.84588 7.69229C5.71776 7.69229 6.26783 8.08733 6.33893 8.71789H9.3924C9.32504 6.66668 7.59998 5.03711 4.80097 5.03711C2.00196 5.03711 0.205809 6.6173 0.205809 8.97239C0.205809 11.7681 2.77656 12.1176 4.43052 12.3531C5.57931 12.5164 6.49609 12.6076 6.49609 13.4243C6.49609 14.0055 6.01338 14.4955 4.79723 14.4955C3.67089 14.4955 3.12082 14.0776 3.09837 13.4015H0C0.0710978 15.5705 1.92712 17.1544 4.81968 17.1544C7.71224 17.1544 9.61691 15.5932 9.61691 13.2381C9.61691 10.4424 6.97507 10.0702 5.41466 9.83466H5.4184Z" fill="#20306B"></path><path d="M10.0547 11.0919C10.0547 7.59722 12.5805 5.0332 16.1616 5.0332C19.7427 5.0332 22.1002 7.43008 22.2611 10.7462C22.2648 10.8602 22.2685 10.9779 22.2685 11.0919C22.2685 14.5865 19.7427 17.1505 16.1616 17.1505C12.5805 17.1505 10.0547 14.5865 10.0547 11.0919ZM19.1253 11.0919C19.1253 9.24958 17.9316 7.96947 16.1616 7.96947C14.3917 7.96947 13.2017 9.24958 13.2017 11.0919C13.2017 12.9342 14.3954 14.2143 16.1616 14.2143C17.9278 14.2143 19.1253 12.9304 19.1253 11.0919Z" fill="#20306B"></path><path d="M23.5073 5.15082C23.5073 1.70174 25.5505 0 28.559 0C31.5676 0 33.5882 1.72454 33.5882 5.15082H30.4899C30.4899 3.52124 29.6853 2.93627 28.5628 2.93627C27.4402 2.93627 26.6094 3.54403 26.6094 5.15082V6.94373H32.1887V9.78503H26.6094V16.8465H23.5111V5.15082H23.5073Z" fill="#20306B"></path><path d="M33.674 12.3524V1.25684H36.7724V5.33646H42.3741V8.17777H36.7724V12.3486C36.7724 13.7236 37.4384 14.2136 38.3777 14.2136C39.3169 14.2136 39.9605 13.7464 39.9605 12.3486V12.0219H43.0589V12.3486C43.0589 15.5887 41.1542 17.1499 38.3739 17.1499C35.5936 17.1499 33.6665 15.5887 33.6665 12.3486L33.674 12.3524Z" fill="#20306B"></path><path d="M43.8447 11.2096C43.8447 7.3883 46.3706 5.0332 49.8843 5.0332C53.398 5.0332 56.0137 7.52504 56.0137 11.2324C56.0137 15.1943 53.0987 17.1505 50.4344 17.1505C48.9413 17.1505 47.7027 16.5428 46.9431 15.3804V21.7658H43.8447V11.2096ZM52.8667 11.0919C52.8667 9.24958 51.673 7.96947 49.9068 7.96947C48.1405 7.96947 46.9468 9.24958 46.9468 11.0919C46.9468 12.9342 48.1405 14.2143 49.9068 14.2143C51.673 14.2143 52.8667 12.9304 52.8667 11.0919Z" fill="#20306B"></path><path d="M56.4219 11.2324C56.4219 7.52504 58.9477 5.0332 62.5513 5.0332C66.1548 5.0332 68.5908 7.45667 68.5908 11.2096V16.8505H65.7432V14.7765C65.0996 16.3376 63.7 17.1543 61.9787 17.1543C59.3631 17.1543 56.4219 15.1981 56.4219 11.2362V11.2324ZM65.4925 11.0919C65.4925 9.24958 64.2988 7.96947 62.5288 7.96947C60.7588 7.96947 59.5689 9.24958 59.5689 11.0919C59.5689 12.9342 60.7626 14.2143 62.5288 14.2143C64.295 14.2143 65.4925 12.9304 65.4925 11.0919Z" fill="#20306B"></path><path d="M69.9229 10.2296C69.9229 6.71216 71.966 5.0332 74.9745 5.0332C77.9831 5.0332 79.9813 6.68937 80.0038 10.2752V10.3436H76.9054V10.2258C76.9054 8.52406 76.1009 7.96567 74.9783 7.96567C73.8557 7.96567 73.0287 8.52406 73.0287 10.2258V16.8429H69.9303V10.2258L69.9229 10.2296Z" fill="#20306B"></path><path d="M56.8182 27.0004C51.92 27.0004 48.8029 23.9654 47.9497 23.012L50.1612 20.9646C50.629 21.485 53.166 24.0756 57.0989 23.9578C60.5153 23.8515 63.5763 21.3596 64.1525 20.748L66.3191 22.8448C66.2817 22.8866 62.4275 26.8333 57.1924 26.9966C57.0689 27.0004 56.9417 27.0042 56.822 27.0042L56.8182 27.0004Z" fill="#0F86FA"></path></g><defs><clipPath id="clip0_523_2053"><rect width="80" height="27" fill="white"></rect></clipPath></defs></svg>